<svg width="265" height="266" viewBox="0 0 265 266" fill="none" xmlns="http://www.w3.org/2000/svg">
<mask id="mask0" mask-type="alpha" maskUnits="userSpaceOnUse" x="0" y="0" width="265" height="266">
<rect width="265" height="266" fill="#EDE5DD"/>
</mask>
<g mask="url(#mask0)">
<g opacity="0.5">
<path d="M217.415 -4.19611L216.622 -6.97718L215.828 -4.19611C214.029 2.09121 212.719 3.40855 206.468 5.21823L203.703 6.01661L204.682 6.29605H210.152L209.425 6.01661C213.44 4.55289 215.173 2.81641 216.628 -1.22877C218.077 2.81641 219.81 4.55289 223.832 6.01661L223.097 6.29605H228.568L229.54 6.01661L226.775 5.21823C220.557 3.40855 219.234 2.09121 217.415 -4.19611Z" fill="#8F9A9D" fill-opacity="0.21"/>
<path d="M216.623 1.89019C215.535 1.89019 214.491 2.32458 213.721 3.09798C212.951 3.87138 212.517 4.92056 212.516 6.01519C212.516 6.10833 212.516 6.20149 212.516 6.29463H214.183C214.183 6.20149 214.183 6.10833 214.183 6.01519C214.215 5.38357 214.488 4.78866 214.944 4.3532C215.4 3.91773 216.004 3.67496 216.633 3.67496C217.262 3.67496 217.867 3.91773 218.323 4.3532C218.779 4.78866 219.051 5.38357 219.084 6.01519C219.09 6.10822 219.09 6.2016 219.084 6.29463H220.751C220.751 6.20149 220.751 6.10833 220.751 6.01519C220.75 5.47149 220.642 4.9333 220.434 4.43149C220.226 3.92968 219.922 3.47411 219.538 3.09089C219.155 2.70767 218.7 2.40435 218.2 2.1983C217.7 1.99226 217.164 1.88756 216.623 1.89019V1.89019Z" fill="#8F9A9D" fill-opacity="0.21"/>
<path d="M201.879 5.18554H196.396V6.29664H201.879V5.18554Z" fill="#8F9A9D" fill-opacity="0.21"/>
<path d="M236.844 5.18554H231.36V6.29664H236.844V5.18554Z" fill="#8F9A9D" fill-opacity="0.21"/>
<path d="M29.9005 -12.2139C26.1244 -10.4418 22.7731 -7.87069 20.0755 -4.67627C17.3779 -1.48186 15.3977 2.2606 14.27 6.29543H15.1432C16.7729 0.660055 20.1009 -4.32786 24.6681 -7.98034C29.2354 -11.6328 34.8169 -13.7699 40.6428 -14.0968C40.6428 -14.0103 40.57 -13.9304 40.5369 -13.8373C40.1574 -12.7948 39.9877 -11.6868 40.0376 -10.5778C40.0876 -9.4687 40.3562 -8.38068 40.828 -7.37698C41.5071 -5.92057 42.5843 -4.68863 43.9336 -3.82506C45.283 -2.9615 46.8488 -2.50196 48.4481 -2.50016C50.5139 -2.49599 52.5084 -3.26 54.0481 -4.64533C55.5878 -6.03066 56.564 -7.93954 56.7892 -10.005C61.5679 -7.11172 65.3867 -2.85856 67.763 2.21699C68.373 3.53612 68.8838 4.89943 69.291 6.29543H70.1509C69.0056 2.2206 66.9932 -1.55503 64.253 -4.76979C61.5128 -7.98456 58.1104 -10.5616 54.2816 -12.3223C50.4528 -14.083 46.2891 -14.9852 42.0792 -14.9665C37.8693 -14.9478 33.7137 -14.0086 29.9005 -12.2139V-12.2139ZM54.7916 -8.64111C54.1776 -6.94715 52.9197 -5.56788 51.2946 -4.80677C49.6696 -4.04565 47.8105 -3.96504 46.1263 -4.58263C44.4422 -5.20022 43.0709 -6.46545 42.3142 -8.09997C41.5575 -9.73449 41.4774 -11.6044 42.0914 -13.2984C42.2004 -13.5926 42.3286 -13.8793 42.475 -14.1566C46.9093 -14.0969 51.2671 -12.9869 55.1951 -10.9165C55.1914 -10.1404 55.055 -9.37066 54.7916 -8.64111V-8.64111Z" fill="#8F9A9D" fill-opacity="0.21"/>
<path d="M33.2245 1.04648C33.6244 1.04438 34.0192 0.955901 34.3821 0.787009C34.7061 0.634678 34.9969 0.419245 35.2376 0.153156C35.4783 -0.112933 35.6641 -0.424386 35.7844 -0.763188C35.91 -1.09966 35.9666 -1.45824 35.9507 -1.81729C35.9347 -2.17635 35.8467 -2.52843 35.6918 -2.85232C35.4713 -3.32322 35.1223 -3.72142 34.6855 -4.00057C34.2487 -4.27973 33.742 -4.42835 33.2245 -4.42913C32.8265 -4.42972 32.4333 -4.34109 32.0736 -4.16967C31.5167 -3.90308 31.0662 -3.45439 30.7957 -2.89694C30.5252 -2.3395 30.4506 -1.70624 30.5843 -1.10066C30.7179 -0.495088 31.0518 0.0470012 31.5313 0.437007C32.0109 0.827013 32.6078 1.04186 33.2245 1.04648V1.04648ZM32.7747 -2.66603C32.9158 -2.73129 33.0692 -2.76532 33.2245 -2.76582C33.4275 -2.76672 33.6265 -2.70887 33.7978 -2.59916C33.969 -2.48946 34.1052 -2.33251 34.1903 -2.14707C34.2521 -2.02063 34.2875 -1.88278 34.2944 -1.74203C34.3012 -1.60128 34.2793 -1.46061 34.23 -1.32872C34.1834 -1.19597 34.1108 -1.07399 34.0165 -0.969985C33.9222 -0.865983 33.8081 -0.782074 33.6809 -0.72327C33.4234 -0.606464 33.1307 -0.59535 32.8651 -0.692266C32.5995 -0.789182 32.382 -0.98648 32.2588 -1.24222C32.1997 -1.36978 32.1661 -1.5078 32.16 -1.64841C32.154 -1.78901 32.1755 -1.92943 32.2234 -2.06165C32.2713 -2.19388 32.3447 -2.31533 32.4393 -2.41903C32.5339 -2.52273 32.6479 -2.60665 32.7747 -2.66603V-2.66603Z" fill="#8F9A9D" fill-opacity="0.21"/>
<path d="M54.4613 2.07121C53.7752 2.07007 53.0974 2.22234 52.4769 2.51698C51.7506 2.86561 51.1257 3.39636 50.6623 4.0582C50.1989 4.72005 49.9126 5.4907 49.8311 6.29602H51.498C51.5766 5.80469 51.7739 5.34027 52.0726 4.94354C52.3713 4.54682 52.7623 4.22989 53.2112 4.0206C53.6124 3.83025 54.0508 3.73251 54.4944 3.73452C55.072 3.7361 55.6373 3.90266 56.1244 4.21479C56.6116 4.52692 57.0005 4.97179 57.2461 5.49762C57.3621 5.75079 57.4401 6.01985 57.4776 6.29602H59.1578C59.1039 5.7748 58.9631 5.26644 58.741 4.79238C58.3607 3.97498 57.7554 3.2843 56.997 2.80205C56.2385 2.3198 55.3586 2.06618 54.4613 2.07121V2.07121Z" fill="#8F9A9D" fill-opacity="0.21"/>
<path d="M69.2545 1.51157C66.8319 -3.65337 63.0017 -8.02071 58.2091 -11.0829C53.4165 -14.145 47.8583 -15.7762 42.1806 -15.7869C35.6448 -15.7785 29.2923 -13.614 24.0972 -9.62526C18.902 -5.6365 15.1512 -0.0437352 13.4199 6.29526H15.1397C16.7397 0.756353 19.981 -4.16007 24.4311 -7.798C28.8812 -11.4359 34.3284 -13.6223 40.046 -14.0655C45.7636 -14.5086 51.4795 -13.1875 56.4312 -10.2782C61.3829 -7.36903 65.3348 -3.01014 67.7595 2.21682C68.3696 3.53595 68.8803 4.89926 69.2875 6.29526H71.0074C70.5571 4.65419 69.9708 3.05401 69.2545 1.51157V1.51157Z" fill="#8F9A9D" fill-opacity="0.21"/>
<path d="M65.0439 -4.4376L65.3218 -2.80091C71.275 -3.84547 75.3165 -3.46623 76.1169 -1.71643C76.8445 -0.146263 75.0057 2.80112 71.1758 6.26747H73.5835C76.4675 3.38661 78.7893 0.0666369 77.6118 -2.44829C76.1169 -5.64185 69.952 -5.29587 65.0439 -4.4376Z" fill="#8F9A9D" fill-opacity="0.21"/>
<path d="M161.989 -16.3264L143.025 -10.059L147.37 3.24745L145.598 3.83292L138.983 -16.4794L137.409 -15.9605L144.023 4.35187L142.204 4.95068L137.878 -8.34251L118.914 -2.07515L121.639 6.29463H123.379L120.991 -1.02394L125.218 -2.42113L128.062 6.27467H129.802L126.792 -2.94008L131.019 -4.33727L134.485 6.29463H136.225L132.587 -4.83626L136.813 -6.23343L140.643 5.48293L138.189 6.29463H143.481L144.539 5.94201L144.652 6.29463H146.391L146.107 5.42305L147.88 4.84422L148.349 6.29463H150.096L149.434 4.29865L153.661 2.90147L154.759 6.26801H156.505L155.229 2.38252L159.462 0.98533L161.189 6.26801H162.928L161.03 0.492996L165.257 -0.90419L167.644 6.29463H169.391L161.989 -16.3264ZM148.938 2.71518L145.115 -9.00118L149.335 -10.3984L153.165 1.31799L148.938 2.71518ZM154.733 0.79904L150.909 -10.9173L155.136 -12.3145L158.966 -0.598126L154.733 0.79904ZM160.534 -1.1171L156.704 -12.8335L160.931 -14.2306L164.76 -2.51426L160.534 -1.1171Z" fill="#8F9A9D" fill-opacity="0.21"/>
<path d="M245.035 230.797C243.421 229.174 241.364 228.068 239.125 227.621C236.886 227.173 234.565 227.403 232.456 228.282C230.347 229.16 228.544 230.648 227.276 232.558C226.008 234.467 225.331 236.711 225.331 239.008C225.331 241.304 226.008 243.548 227.276 245.457C228.544 247.367 230.347 248.855 232.456 249.734C234.565 250.612 236.886 250.842 239.125 250.394C241.364 249.947 243.421 248.841 245.035 247.218C246.12 246.147 246.981 244.869 247.57 243.459C248.158 242.05 248.461 240.536 248.461 239.008C248.461 237.479 248.158 235.965 247.57 234.556C246.981 233.146 246.12 231.868 245.035 230.797V230.797ZM243.871 246.04C242.486 247.443 240.718 248.4 238.791 248.791C236.865 249.181 234.866 248.988 233.049 248.234C231.232 247.481 229.679 246.202 228.586 244.559C227.492 242.917 226.909 240.984 226.909 239.008C226.909 237.031 227.492 235.099 228.586 233.456C229.679 231.813 231.232 230.534 233.049 229.781C234.866 229.027 236.865 228.834 238.791 229.225C240.718 229.615 242.486 230.572 243.871 231.975C244.792 232.898 245.522 233.995 246.02 235.203C246.517 236.411 246.772 237.706 246.77 239.013C246.767 240.321 246.507 241.615 246.005 242.821C245.503 244.027 244.769 245.121 243.844 246.04H243.871Z" fill="#8F9A9D" fill-opacity="0.21"/>
<path d="M226.777 227.696L225.607 228.872L246.931 250.32L248.101 249.144L226.777 227.696Z" fill="#8F9A9D" fill-opacity="0.21"/>
<path d="M123.429 146.606C122.188 145.357 120.715 144.366 119.094 143.69C117.473 143.014 115.735 142.666 113.979 142.666C112.224 142.666 110.486 143.014 108.865 143.69C107.244 144.366 105.771 145.357 104.53 146.606C102.978 148.169 101.832 150.094 101.195 152.208C100.558 154.323 100.449 156.564 100.879 158.731C101.308 160.898 102.262 162.925 103.656 164.633C105.05 166.341 106.841 167.677 108.871 168.522C110.901 169.368 113.107 169.696 115.293 169.48C117.48 169.263 119.579 168.507 121.406 167.279C123.233 166.052 124.73 164.39 125.766 162.441C126.802 160.492 127.344 158.317 127.344 156.107C127.351 154.341 127.008 152.592 126.336 150.96C125.664 149.329 124.675 147.849 123.429 146.606ZM122.264 164.437C120.348 166.367 117.826 167.57 115.127 167.839C112.428 168.108 109.719 167.428 107.463 165.913C105.207 164.399 103.543 162.145 102.755 159.535C101.966 156.925 102.102 154.12 103.139 151.6C104.176 149.079 106.049 146.998 108.441 145.711C110.833 144.424 113.594 144.012 116.254 144.543C118.914 145.075 121.309 146.518 123.029 148.627C124.75 150.735 125.691 153.379 125.691 156.107C125.695 157.654 125.394 159.187 124.806 160.616C124.218 162.046 123.354 163.345 122.264 164.437V164.437Z" fill="#8F9A9D" fill-opacity="0.21"/>
<path d="M126.154 143.258L100.655 167.776L101.798 168.978L127.297 144.46L126.154 143.258Z" fill="#8F9A9D" fill-opacity="0.21"/>
<path d="M129.138 102.881C124.508 101.909 123.932 101.33 122.973 96.6797L122.16 92.7876L121.339 96.6797C120.374 101.337 119.798 101.909 115.175 102.881L111.285 103.692L115.175 104.511C119.805 105.482 120.374 106.061 121.339 110.711L122.146 114.624L122.96 110.718C123.919 106.061 124.501 105.482 129.125 104.511L133.014 103.692L129.138 102.881ZM122.16 107.338C121.901 106.479 121.436 105.697 120.805 105.062C120.173 104.427 119.396 103.959 118.541 103.699C119.396 103.436 120.172 102.966 120.803 102.331C121.434 101.695 121.9 100.913 122.16 100.053C122.421 100.913 122.889 101.694 123.521 102.33C124.153 102.966 124.93 103.436 125.785 103.699C124.93 103.96 124.152 104.428 123.52 105.063C122.888 105.698 122.421 106.479 122.16 107.338V107.338Z" fill="#8F9A9D" fill-opacity="0.21"/>
<path d="M14.2905 233.297C9.66021 232.325 9.08473 231.746 8.1256 227.096L7.312 223.19L6.505 227.102C5.53926 231.76 4.96378 232.332 0.340118 233.303L-3.54932 234.115L0.340118 234.933C4.9704 235.898 5.53926 236.483 6.505 241.134L7.312 245.046L8.1256 241.154C9.08473 236.497 9.66682 235.918 14.2905 234.953L18.1535 234.108L14.2905 233.297ZM7.312 237.754C7.05254 236.895 6.58678 236.112 5.95578 235.476C5.32479 234.841 4.54795 234.371 3.69376 234.108C4.54829 233.848 5.32575 233.38 5.95699 232.745C6.58823 232.11 7.0537 231.328 7.312 230.469C7.57301 231.328 8.04019 232.109 8.67234 232.744C9.30449 233.379 10.0822 233.847 10.9368 234.108C10.0822 234.371 9.30489 234.841 8.67291 235.477C8.04094 236.113 7.57364 236.895 7.312 237.754V237.754Z" fill="#8F9A9D" fill-opacity="0.21"/>
<path d="M81.4089 179.372C75.1581 177.562 73.8483 176.245 72.0492 169.958L71.2554 167.183L70.4616 169.964C68.6624 176.245 67.3527 177.562 61.1019 179.372L58.3369 180.17L61.1019 180.969C67.3527 182.778 68.6624 184.096 70.4616 190.383L71.2554 193.164L72.0492 190.383C73.8483 184.096 75.1581 182.778 81.4089 180.969L84.1739 180.17L81.4089 179.372ZM71.2554 187.416C69.8002 183.377 68.0737 181.634 64.052 180.17C68.0737 178.707 69.8002 176.97 71.2554 172.925C72.7106 176.97 74.4371 178.707 78.4588 180.17C74.4371 181.634 72.7106 183.377 71.2554 187.416Z" fill="#8F9A9D" fill-opacity="0.21"/>
<path d="M71.2559 176.046C70.4429 176.045 69.6478 176.287 68.9713 176.74C68.2948 177.194 67.7673 177.839 67.4556 178.594C67.1438 179.349 67.0619 180.18 67.2202 180.983C67.3785 181.785 67.7699 182.521 68.3447 183.1C68.9196 183.678 69.6521 184.072 70.4496 184.231C71.247 184.39 72.0735 184.308 72.8243 183.994C73.5752 183.681 74.2167 183.15 74.6675 182.469C75.1184 181.789 75.3583 180.989 75.357 180.172C75.3553 179.078 74.9226 178.03 74.1539 177.257C73.3852 176.483 72.3431 176.048 71.2559 176.046V176.046ZM71.2559 182.64C70.7703 182.641 70.2952 182.498 69.8907 182.227C69.4863 181.957 69.1707 181.572 68.984 181.121C68.7972 180.67 68.7477 180.173 68.8416 179.694C68.9356 179.215 69.1688 178.774 69.5117 178.428C69.8546 178.083 70.2919 177.847 70.7681 177.751C71.2443 177.655 71.7381 177.704 72.1869 177.89C72.6357 178.077 73.0194 178.393 73.2893 178.799C73.5593 179.206 73.7034 179.683 73.7034 180.172C73.7016 180.824 73.4434 181.45 72.985 181.913C72.5266 182.375 71.9051 182.636 71.2559 182.64V182.64Z" fill="#8F9A9D" fill-opacity="0.21"/>
<path d="M56.509 179.339H51.0254V181.002H56.509V179.339Z" fill="#8F9A9D" fill-opacity="0.21"/>
<path d="M91.4738 179.339H85.9902V181.002H91.4738V179.339Z" fill="#8F9A9D" fill-opacity="0.21"/>
<path d="M72.0795 159.824H70.4258V165.34H72.0795V159.824Z" fill="#8F9A9D" fill-opacity="0.21"/>
<path d="M72.0795 195H70.4258V200.516H72.0795V195Z" fill="#8F9A9D" fill-opacity="0.21"/>
<path d="M259.585 140.498C259.466 140.784 259.347 141.084 259.235 141.403C257.78 137.358 256.053 135.622 252.031 134.158C256.053 132.694 257.78 130.958 259.235 126.912C259.347 127.232 259.466 127.525 259.585 127.817V122.388L259.235 121.164L258.441 123.945C256.642 130.232 255.332 131.55 249.081 133.359L246.316 134.158L249.081 134.956C255.332 136.766 256.642 138.083 258.441 144.371L259.235 147.152L259.585 145.927V140.498Z" fill="#8F9A9D" fill-opacity="0.21"/>
<path d="M255.132 134.157C255.134 135.25 255.566 136.298 256.335 137.072C257.104 137.845 258.146 138.28 259.233 138.282H259.584V136.599C259.467 136.605 259.35 136.605 259.233 136.599C258.605 136.566 258.014 136.292 257.581 135.833C257.148 135.374 256.906 134.766 256.906 134.134C256.906 133.501 257.148 132.893 257.581 132.434C258.014 131.975 258.605 131.701 259.233 131.668C259.351 131.672 259.468 131.685 259.584 131.708V130.045C259.471 130.045 259.352 130.045 259.233 130.045C258.148 130.047 257.108 130.48 256.34 131.251C255.571 132.021 255.137 133.066 255.132 134.157V134.157Z" fill="#8F9A9D" fill-opacity="0.21"/>
<path d="M244.492 133.324H239.009V134.987H244.492V133.324Z" fill="#8F9A9D" fill-opacity="0.21"/>
<path d="M259.586 113.812H258.408V119.328H259.586V113.812Z" fill="#8F9A9D" fill-opacity="0.21"/>
<path d="M259.586 148.981H258.408V154.497H259.586V148.981Z" fill="#8F9A9D" fill-opacity="0.21"/>
<path d="M-4.55682 123.946L-5 122.389V127.818C-3.61092 131.224 -1.85141 132.808 1.85281 134.158C-1.85141 135.489 -3.61092 137.092 -5 140.492V145.921L-4.55682 144.371C-2.75762 138.084 -1.44791 136.766 4.80296 134.957L7.5679 134.158L4.80296 133.373C-1.44791 131.55 -2.75762 130.233 -4.55682 123.946Z" fill="#8F9A9D" fill-opacity="0.21"/>
<path d="M14.8766 133.324H9.39307V134.987H14.8766V133.324Z" fill="#8F9A9D" fill-opacity="0.21"/>
<path d="M223.096 6.29498C219.59 7.70547 217.99 9.47524 216.627 13.2609C215.264 9.47524 213.657 7.70547 210.158 6.29498H204.688L206.48 6.81394C212.731 8.62362 214.041 9.94096 215.84 16.2283L216.634 19.0093L217.427 16.2283C219.22 9.94096 220.536 8.62362 226.781 6.81394L228.573 6.29498H223.096Z" fill="#8F9A9D" fill-opacity="0.21"/>
<path d="M219.046 6.29498C218.976 6.89262 218.691 7.44377 218.244 7.84376C217.797 8.24375 217.22 8.46474 216.621 8.46474C216.023 8.46474 215.446 8.24375 214.999 7.84376C214.552 7.44377 214.267 6.89262 214.197 6.29498H212.53C212.602 7.33684 213.065 8.31237 213.824 9.02473C214.583 9.73708 215.583 10.1332 216.621 10.1332C217.66 10.1332 218.659 9.73708 219.419 9.02473C220.178 8.31237 220.64 7.33684 220.713 6.29498H219.046Z" fill="#8F9A9D" fill-opacity="0.21"/>
<path d="M201.879 6.29498H196.396V6.84814H201.879V6.29498Z" fill="#8F9A9D" fill-opacity="0.21"/>
<path d="M236.844 6.29498H231.36V6.84814H236.844V6.29498Z" fill="#8F9A9D" fill-opacity="0.21"/>
<path d="M217.453 20.8398H215.8V26.3553H217.453V20.8398Z" fill="#8F9A9D" fill-opacity="0.21"/>
<path d="M217.415 261.933L216.622 259.152L215.828 261.933C214.029 268.22 212.719 269.538 206.468 271.347L203.703 272.146L204.682 272.425H210.152L209.425 272.146C213.44 270.682 215.173 268.945 216.628 264.9C218.077 268.945 219.81 270.682 223.832 272.146L223.097 272.425H228.568L229.54 272.146L226.775 271.347C220.557 269.538 219.234 268.22 217.415 261.933Z" fill="#8F9A9D" fill-opacity="0.21"/>
<path d="M217.453 251.8H215.8V257.315H217.453V251.8Z" fill="#8F9A9D" fill-opacity="0.21"/>
<path d="M97.6689 113.227L91.8942 99.501C97.6821 76.5673 91.1005 55.4565 91.0145 55.2104L90.7565 54.3987L89.9628 54.6781C89.7114 54.7646 68.981 62.1497 54.2435 80.5859L39.8697 84.1853L17.5386 112.748L40.1145 114.151C39.8514 117.891 40.1728 121.649 41.067 125.289L41.1662 125.635L42.6215 126.327L39.3141 132.98C36.6001 134.248 34.3841 136.39 33.0169 139.068C26.5808 151.709 33.1757 167.963 33.4601 168.655L33.7379 169.32L34.4325 169.127C35.1402 168.941 51.7629 164.33 58.1924 151.729C59.5768 149.009 59.9678 145.887 59.2971 142.907L62.5449 136.36L63.9737 137.079L64.3176 136.945C67.7291 135.445 70.8905 133.426 73.6906 130.958L88.4083 148.316L97.6689 113.227ZM84.5255 58.8564H84.5718L85.6434 58.3441L85.8683 58.2376L86.5297 57.9382L86.9398 57.7519L87.297 57.5922L87.7402 57.3926L88.0511 57.2596L88.5009 57.0733L88.6729 57.0001L89.1624 56.7938L89.2814 56.7473L89.7048 56.5743C89.7445 56.714 89.7908 56.8737 89.8371 57.0467C89.8341 57.0799 89.8341 57.1133 89.8371 57.1465C89.8768 57.3128 89.9297 57.4991 89.976 57.6987L90.0157 57.8451C90.0686 58.0491 90.1215 58.2709 90.1744 58.5104C90.1774 58.5458 90.1774 58.5814 90.1744 58.6168C90.2273 58.8298 90.2803 59.056 90.3332 59.2822C90.3332 59.3487 90.3332 59.4152 90.3795 59.4884C90.439 59.7412 90.4919 60.0074 90.5515 60.2802L90.611 60.5529C90.6705 60.8324 90.7301 61.1251 90.7962 61.4245C90.7962 61.511 90.8293 61.6042 90.8425 61.6906C90.8954 61.9501 90.9483 62.2096 90.9946 62.4757L91.0542 62.8017C91.1137 63.1144 91.1732 63.4671 91.2328 63.7798C91.2328 63.9195 91.2791 64.0525 91.2989 64.1923C91.3584 64.5316 91.418 64.8576 91.4709 65.2368C91.4709 65.3765 91.5106 65.5163 91.537 65.656C91.5767 65.9421 91.623 66.2348 91.6627 66.5342C91.6627 66.7005 91.709 66.8602 91.7355 67.0332C91.7818 67.3858 91.8281 67.7384 91.8744 68.1044L91.9339 68.63C91.978 69.0203 92.0243 69.4195 92.0728 69.8276C92.0728 70.0005 92.1059 70.1802 92.1257 70.3598C92.1588 70.6925 92.1919 71.0251 92.225 71.3844C92.225 71.5973 92.258 71.8169 92.2779 72.0497C92.2779 72.4223 92.3374 72.7949 92.3639 73.1741L92.4036 73.7596L92.4829 75.0903C92.4829 75.2832 92.4829 75.4828 92.4829 75.6891C92.4829 76.0949 92.516 76.5008 92.5292 76.9199C92.5292 77.1395 92.5292 77.3657 92.5292 77.5852C92.5292 77.9844 92.5292 78.3969 92.5292 78.8094C92.5292 79.0024 92.5292 79.202 92.5292 79.4016C92.5292 79.9006 92.5292 80.4062 92.5292 80.9119C92.5292 81.1181 92.5292 81.3177 92.5292 81.524C92.5292 82.0496 92.5292 82.5752 92.4829 83.1074L66.7915 70.2001C72.2552 65.7535 78.2049 61.9477 84.5255 58.8564V58.8564ZM20.793 111.257L40.8024 85.6623L52.5964 82.7082C50.2475 85.877 48.1844 89.2503 46.4315 92.7879L45.2673 95.0966C42.5068 100.51 40.7983 106.404 40.2336 112.462L20.793 111.257ZM56.7107 150.951C51.3462 161.463 37.9449 166.253 34.7037 167.291C33.5329 164.057 29.1143 150.312 34.4722 139.806C35.7425 137.306 37.8513 135.338 40.4254 134.251L42.0261 135.056C41.3584 135.656 40.8047 136.373 40.3923 137.172C36.7939 144.218 40.6569 153.352 40.8223 153.732L41.1001 154.397L41.7615 154.224C42.1584 154.124 51.5777 151.662 55.1629 144.643C55.5915 143.828 55.8631 142.939 55.9633 142.022L57.564 142.827C58.286 145.548 57.9821 148.441 56.7107 150.951V150.951ZM54.3493 141.237C54.3605 142.149 54.1517 143.051 53.7407 143.865C51.0287 149.187 44.2884 151.696 42.0989 152.388C41.3117 150.212 39.1752 143.246 41.8872 137.937C42.3074 137.114 42.9176 136.404 43.6666 135.868L54.3493 141.237ZM58.2189 141.317L41.2324 132.787L44.0701 127.072L61.0566 135.602L58.2189 141.317ZM64.0332 135.236L42.5619 124.457C42.046 122.288 39.6382 110.1 46.6564 96.0147C46.6564 95.9814 46.7226 95.8817 46.8086 95.702C47.0136 95.3294 47.2848 94.7839 47.6883 93.9788C48.1778 93.0074 48.4556 92.4552 48.6144 92.1226L48.7202 91.9163C49.0642 91.251 49.4214 90.6256 49.7852 90.0002L50.1093 89.448C50.3871 88.9822 50.6649 88.5165 50.9493 88.0641C51.0618 87.8911 51.1676 87.7181 51.2735 87.5451C51.6505 86.953 52.0341 86.3742 52.4244 85.802L52.6758 85.4427C52.9867 84.9903 53.3372 84.5379 53.6283 84.1121L54.0781 83.5066C54.3559 83.134 54.6403 82.7681 54.9248 82.4022C55.0703 82.2159 55.2092 82.0229 55.3613 81.8367C55.7516 81.3443 56.1485 80.8586 56.5454 80.3796L57.0812 79.7542L57.8352 78.8893L58.4967 78.1508C58.715 77.9046 58.9399 77.6651 59.1582 77.4256C59.5617 76.9931 59.9718 76.5673 60.3819 76.1415L60.9574 75.556L61.804 74.7576L62.2737 74.3052L63.127 73.4935L63.418 73.2274C64.0971 72.5931 64.7851 71.981 65.4818 71.3911L92.4697 84.9437C92.4697 85.3696 92.4102 85.7953 92.3771 86.2212C92.3771 86.4141 92.344 86.6137 92.3308 86.8133C92.3308 87.2125 92.258 87.6183 92.2184 88.0308C92.2184 88.2504 92.172 88.4766 92.1456 88.6961C92.0728 89.3615 91.9868 90.0734 91.8942 90.772C91.8942 91.0447 91.8281 91.3109 91.7884 91.5903C91.7487 91.8698 91.6826 92.2556 91.623 92.6216C91.5635 92.9875 91.5238 93.2869 91.4643 93.5863C91.4047 93.8857 91.3518 94.2516 91.2857 94.5843C91.2195 94.917 91.1468 95.3161 91.074 95.6887C91.0013 96.0613 90.955 96.2809 90.8888 96.5736L90.8094 96.9395C90.697 97.4518 90.5845 97.9575 90.4589 98.4698C90.4059 98.7093 90.3398 98.9421 90.2803 99.1817C90.2207 99.4212 90.1943 99.4944 90.1546 99.6541C90.0818 99.9468 90.0024 100.24 89.9231 100.532C89.8437 100.825 89.7709 101.065 89.6982 101.331C89.5659 101.774 89.427 102.233 89.2814 102.708C89.2087 102.941 89.1425 103.174 89.0698 103.373C88.8515 104.039 88.62 104.704 88.4083 105.369L88.2694 105.735C88.0643 106.307 87.846 106.879 87.6079 107.452L87.3301 108.117C87.1317 108.616 86.92 109.108 86.7017 109.607L86.4239 110.239C86.113 110.905 85.7624 111.617 85.4515 112.302L84.294 114.684C77.1699 128.842 66.0705 134.324 64.0332 135.236ZM74.921 129.853C79.2821 125.848 82.8877 121.083 85.564 115.788L85.8087 115.289C86.0138 114.903 86.2784 114.371 86.6488 113.633C87.125 112.681 87.4095 112.116 87.5749 111.763L87.7336 111.457C87.7865 111.36 87.8223 111.254 87.8394 111.144C89.1685 108.215 90.2871 105.193 91.1865 102.102L95.9226 113.353L87.6013 144.816L74.921 129.853Z" fill="#8F9A9D" fill-opacity="0.21"/>
<path d="M70.4821 108.649C69.8666 106.79 68.6291 105.202 66.9805 104.158C65.3319 103.114 63.3742 102.676 61.4411 102.921C59.5079 103.166 57.719 104.077 56.3792 105.5C55.0394 106.923 54.2316 108.769 54.0935 110.724C53.9553 112.679 54.4955 114.621 55.6218 116.221C56.7481 117.82 58.3909 118.976 60.2702 119.494C62.1495 120.011 64.149 119.857 65.9279 119.057C67.7068 118.258 69.155 116.863 70.0257 115.109C70.5218 114.116 70.8176 113.034 70.8959 111.925C70.9742 110.816 70.8336 109.703 70.4821 108.649ZM68.5506 114.371C67.9537 115.576 67.0147 116.576 65.8524 117.245C64.6901 117.913 63.3568 118.22 62.0213 118.126C60.6857 118.032 59.4078 117.542 58.3494 116.717C57.291 115.892 56.4996 114.77 56.0754 113.493C55.6512 112.216 55.6132 110.84 55.9663 109.541C56.3193 108.242 57.0476 107.078 58.0588 106.195C59.0701 105.313 60.3189 104.752 61.6472 104.583C62.9756 104.415 64.3237 104.647 65.5211 105.249C66.318 105.645 67.029 106.196 67.6132 106.87C68.1974 107.544 68.6432 108.327 68.9248 109.175C69.2064 110.023 69.3184 110.919 69.2542 111.811C69.1899 112.702 68.9508 113.573 68.5506 114.371V114.371Z" fill="#8F9A9D" fill-opacity="0.21"/>
<path d="M68.3092 99.6276C69.2656 100.111 70.3214 100.361 71.3916 100.359C72.9927 100.327 74.5383 99.764 75.7889 98.758C77.0396 97.7521 77.9253 96.3593 78.3089 94.7955C78.6925 93.2317 78.5525 91.5843 77.9106 90.1087C77.2687 88.633 76.1608 87.4116 74.7585 86.6338C73.8021 86.1506 72.7463 85.9 71.6761 85.9019C70.3316 85.9052 69.0149 86.2879 67.876 87.0065C66.737 87.7252 65.8214 88.7509 65.2334 89.9671C64.3755 91.6745 64.2164 93.652 64.7902 95.4759C65.0695 96.3702 65.5251 97.1987 66.1297 97.9119C66.7343 98.6252 67.4755 99.2087 68.3092 99.6276V99.6276ZM66.7084 90.7122C67.1678 89.7783 67.8749 88.9901 68.7515 88.4348C69.6281 87.8795 70.6402 87.5786 71.6761 87.5653C72.4892 87.566 73.2909 87.7573 74.0177 88.1241C75.3061 88.7992 76.276 89.9604 76.7149 91.3533C77.1538 92.7463 77.0259 94.2575 76.3593 95.5558C75.8995 96.4875 75.1931 97.2736 74.3178 97.8277C73.4426 98.3817 72.4323 98.6822 71.3983 98.6961C70.5916 98.6862 69.7985 98.4856 69.0831 98.1106C68.4543 97.7871 67.8962 97.3402 67.4418 96.7963C66.9874 96.2524 66.6458 95.6225 66.4372 94.9437C65.9772 93.5514 66.0745 92.0336 66.7084 90.7122V90.7122Z" fill="#8F9A9D" fill-opacity="0.21"/>
<path d="M68.7281 23.9132C67.2144 28.1089 64.7391 31.8869 61.5029 34.9409C58.2667 37.9948 54.3606 40.2389 50.1012 41.491C50.0787 41.4251 50.0522 41.3607 50.0218 41.2981C49.486 40.1485 48.6362 39.1759 47.5716 38.4938C46.5069 37.8117 45.2713 37.4483 44.009 37.4459C43.0392 37.4453 42.0813 37.6611 41.2044 38.0779C40.4131 38.4479 39.7023 38.9717 39.1132 39.6191C38.524 40.2665 38.068 41.0248 37.7714 41.8503L37.6523 42.2362C33.7129 41.5904 29.955 40.1095 26.6278 37.8919C23.3005 35.6742 20.4801 32.7704 18.3534 29.373C16.2267 25.9757 14.8424 22.1623 14.2923 18.186C13.7421 14.2096 14.0387 10.161 15.1624 6.30868H14.2694C13.0468 10.6528 12.842 15.2228 13.6711 19.66C14.5003 24.0971 16.3408 28.2805 19.0482 31.8816C21.7556 35.4827 25.2561 38.4035 29.2749 40.4146C33.2936 42.4257 37.7212 43.4723 42.2099 43.4723C46.6985 43.4723 51.1261 42.4257 55.1448 40.4146C59.1636 38.4035 62.6641 35.4827 65.3715 31.8816C68.0789 28.2805 69.9194 24.0971 70.7486 19.66C71.5777 15.2228 71.3729 10.6528 70.1503 6.30868H69.2904C70.9819 12.086 70.7848 18.257 68.7281 23.9132V23.9132ZM42.2231 42.6287C41.2529 42.6236 40.2837 42.5681 39.3192 42.4624C39.3153 42.4471 39.3153 42.4311 39.3192 42.4159C39.6653 41.4458 40.2997 40.6062 41.1362 40.0111C41.9728 39.416 42.9712 39.0942 43.9958 39.0892C44.927 39.0927 45.8387 39.3574 46.6286 39.8533C47.4185 40.3493 48.0553 41.057 48.4673 41.8969C46.42 42.3769 44.3253 42.6223 42.2231 42.6287V42.6287Z" fill="#8F9A9D" fill-opacity="0.21"/>
<path d="M22.9171 7.88582C22.1362 7.88901 21.3685 8.08912 20.6844 8.46786C20.0002 8.84659 19.4214 9.39184 19.0009 10.0537C18.5804 10.7156 18.3317 11.473 18.2774 12.2566C18.2231 13.0402 18.3651 13.8249 18.6903 14.5391C19.0398 15.3065 19.5884 15.965 20.2784 16.4453C20.9685 16.9257 21.7744 17.2102 22.6116 17.2688C23.4488 17.3275 24.2862 17.1581 25.0357 16.7786C25.7853 16.3991 26.4194 15.8235 26.8712 15.1122C27.3231 14.4009 27.5761 13.5803 27.6035 12.7367C27.631 11.8931 27.432 11.0576 27.0273 10.3181C26.6227 9.57865 26.0274 8.9625 25.3042 8.53448C24.5809 8.10646 23.7563 7.88239 22.9171 7.88582V7.88582ZM24.2003 15.3241C23.8014 15.5144 23.3652 15.6121 22.9237 15.6102C22.4393 15.6104 21.962 15.4932 21.5321 15.2686C21.1022 15.0439 20.7325 14.7185 20.4541 14.3197C20.1758 13.9209 19.997 13.4606 19.9329 12.9777C19.8688 12.4947 19.9214 12.0033 20.086 11.5451C20.2206 11.1703 20.4279 10.8261 20.6959 10.5325C20.9639 10.239 21.2872 10.002 21.6471 9.83522C22.0436 9.64487 22.4777 9.54708 22.9171 9.54913C23.6011 9.55128 24.2641 9.78721 24.7973 10.2182C25.3305 10.6493 25.7022 11.2498 25.8514 11.9212C26.0006 12.5927 25.9184 13.2952 25.6184 13.9136C25.3184 14.5319 24.8184 15.0293 24.2003 15.3241V15.3241Z" fill="#8F9A9D" fill-opacity="0.21"/>
<path d="M57.3203 7.83188C57.1028 8.41635 56.7135 8.92037 56.2042 9.2769C55.695 9.63344 55.0899 9.8256 54.4694 9.82785C54.0299 9.82982 53.5952 9.73535 53.1957 9.55105C52.7962 9.36675 52.4415 9.09704 52.1562 8.76071C51.871 8.42439 51.662 8.02955 51.544 7.6037C51.426 7.17785 51.4018 6.73123 51.4729 6.29498H49.806C49.7131 7.14872 49.8549 8.01174 50.2162 8.78995C50.477 9.35149 50.8453 9.85583 51.3 10.2741C51.7547 10.6924 52.2869 11.0165 52.8662 11.2278C53.4455 11.4391 54.0605 11.5336 54.6761 11.5057C55.2916 11.4778 55.8957 11.3282 56.4538 11.0654C57.013 10.806 57.5152 10.437 57.9309 9.98003C58.3466 9.52307 58.6675 8.9873 58.8748 8.40407C59.1152 7.73132 59.2011 7.01255 59.1261 6.30164H57.446C57.5356 6.81411 57.4923 7.34114 57.3203 7.83188Z" fill="#8F9A9D" fill-opacity="0.21"/>
<path d="M39.51 16.4089C37.8922 16.4097 36.3184 16.9384 35.0248 17.9156C33.7312 18.8928 32.7878 20.2658 32.3362 21.8284C31.8846 23.3909 31.9492 25.0587 32.5203 26.5812C33.0915 28.1036 34.1383 29.3986 35.5035 30.2716C36.8688 31.1446 38.4788 31.5485 40.0918 31.4227C41.7047 31.2968 43.2335 30.648 44.4486 29.5737C45.6637 28.4993 46.4994 27.0575 46.8303 25.4646C47.1611 23.8718 46.9693 22.2139 46.2835 20.7401C45.677 19.448 44.7187 18.3553 43.5199 17.5887C42.321 16.8221 40.9307 16.413 39.51 16.4089ZM41.9641 29.2297C41.1943 29.5936 40.3541 29.7821 39.5034 29.7819C38.3939 29.7832 37.307 29.4667 36.3699 28.8693C35.4327 28.2719 34.6841 27.4184 34.2117 26.4087C33.7977 25.5148 33.6146 24.5302 33.6794 23.5462C33.7442 22.5622 34.0548 21.6106 34.5824 20.7794C35.1101 19.9482 35.8376 19.2643 36.6978 18.7911C37.558 18.3179 38.523 18.0706 39.5034 18.0722C40.827 18.0738 42.1105 18.5291 43.1422 19.3629C44.174 20.1968 44.8924 21.3594 45.1791 22.6591C45.4657 23.9588 45.3034 25.3179 44.719 26.5124C44.1345 27.7068 43.1628 28.6653 41.9641 29.2297V29.2297Z" fill="#8F9A9D" fill-opacity="0.21"/>
<path d="M62.8925 22.0576C62.4767 22.0561 62.0656 22.1469 61.6887 22.3237C61.0986 22.5989 60.6199 23.0688 60.3319 23.6553C60.0439 24.2418 59.9639 24.9097 60.1052 25.5483C60.2466 26.1868 60.6007 26.7575 61.1089 27.1658C61.6171 27.574 62.2488 27.7952 62.8991 27.7927C63.3147 27.7916 63.7253 27.7009 64.103 27.5265C64.693 27.2513 65.1718 26.7815 65.4598 26.195C65.7478 25.6084 65.8278 24.9405 65.6864 24.302C65.5451 23.6634 65.191 23.0927 64.6828 22.6845C64.1746 22.2762 63.5429 22.055 62.8925 22.0576V22.0576ZM64.0236 25.3376C63.9113 25.6329 63.6879 25.8719 63.4019 26.0029C63.1132 26.1321 62.7862 26.1439 62.489 26.036C62.1919 25.9282 61.9478 25.7089 61.8077 25.4241C61.7409 25.2805 61.7029 25.1249 61.696 24.9665C61.6891 24.808 61.7134 24.6497 61.7675 24.5008C61.8216 24.3518 61.9044 24.215 62.0112 24.0983C62.118 23.9816 62.2467 23.8872 62.3898 23.8207C62.5463 23.7441 62.7185 23.7054 62.8925 23.7076C63.118 23.7052 63.3397 23.7663 63.5325 23.8838C63.7253 24.0014 63.8817 24.1708 63.984 24.3729C64.0545 24.5228 64.0944 24.6855 64.1012 24.8512C64.108 25.0169 64.0816 25.1824 64.0236 25.3376V25.3376Z" fill="#8F9A9D" fill-opacity="0.21"/>
<path d="M68.7263 23.9128C66.7513 29.3908 63.1486 34.1251 58.407 37.4732C53.6654 40.8213 48.0146 42.6211 42.2213 42.6283C37.8386 42.634 33.515 41.6116 29.5939 39.6423C25.6728 37.673 22.2624 34.8111 19.6335 31.2839C17.0046 27.7568 15.2297 23.6616 14.4498 19.3237C13.6699 14.9858 13.9065 10.5248 15.1407 6.29498H13.4209C12.2046 10.7522 12.0275 15.4317 12.9034 19.969C13.7793 24.5064 15.6846 28.7791 18.471 32.4546C21.2573 36.1301 24.8495 39.1091 28.9678 41.1597C33.0861 43.2103 37.6193 44.2771 42.2146 44.2771C46.8099 44.2771 51.3432 43.2103 55.4615 41.1597C59.5798 39.1091 63.172 36.1301 65.9583 32.4546C68.7447 28.7791 70.65 24.5064 71.5259 19.969C72.4018 15.4317 72.2247 10.7522 71.0084 6.29498H69.2885C70.983 12.0764 70.7859 18.2525 68.7263 23.9128V23.9128Z" fill="#8F9A9D" fill-opacity="0.21"/>
<path d="M71.1697 6.29498C70.8081 6.62765 70.4245 6.96696 70.0188 7.31293C64.35 12.1432 55.5392 17.5323 45.8553 22.0898C36.1714 26.6473 26.4016 30.0005 19.0791 31.2846C13.1259 32.3291 9.09093 31.9499 8.29055 30.2067C7.49018 28.4636 9.76563 25.1104 14.3761 21.1783L13.3111 19.9075C9.50765 23.1476 5.2941 27.6852 6.78902 30.9053C7.70846 32.9013 10.3676 33.5134 13.4037 33.5134C15.4012 33.4867 17.3929 33.2886 19.3569 32.9213C26.8183 31.5906 36.7271 28.2174 46.5499 23.6067C56.3727 18.996 65.3091 13.5138 71.0837 8.5837C71.9172 7.87846 72.7639 7.10669 73.5709 6.30164L71.1697 6.29498Z" fill="#8F9A9D" fill-opacity="0.21"/>
<path d="M29.9005 253.915C26.1244 255.687 22.7731 258.258 20.0755 261.453C17.3779 264.647 15.3977 268.39 14.27 272.424H15.1432C16.7729 266.789 20.1009 261.801 24.6681 258.149C29.2354 254.496 34.8169 252.359 40.6428 252.032C40.6428 252.119 40.57 252.199 40.5369 252.292C40.1574 253.334 39.9877 254.442 40.0376 255.551C40.0876 256.66 40.3562 257.748 40.828 258.752C41.5071 260.208 42.5843 261.44 43.9336 262.304C45.283 263.167 46.8488 263.627 48.4481 263.629C50.5139 263.633 52.5084 262.869 54.0481 261.484C55.5878 260.098 56.564 258.189 56.7892 256.124C61.5679 259.017 65.3867 263.27 67.763 268.346C68.373 269.665 68.8838 271.028 69.291 272.424H70.1509C69.0056 268.35 66.9932 264.574 64.253 261.359C61.5128 258.144 58.1104 255.567 54.2816 253.807C50.4528 252.046 46.2891 251.144 42.0792 251.162C37.8693 251.181 33.7137 252.12 29.9005 253.915V253.915ZM54.7916 257.488C54.1776 259.182 52.9197 260.561 51.2946 261.322C49.6696 262.083 47.8105 262.164 46.1263 261.546C44.4422 260.929 43.0709 259.664 42.3142 258.029C41.5575 256.394 41.4774 254.525 42.0914 252.831C42.2004 252.536 42.3286 252.25 42.475 251.972C46.9093 252.032 51.2671 253.142 55.1951 255.212C55.1914 255.989 55.055 256.758 54.7916 257.488V257.488Z" fill="#8F9A9D" fill-opacity="0.21"/>
<path d="M33.2245 267.175C33.6244 267.173 34.0192 267.085 34.3821 266.916C34.7061 266.764 34.9969 266.548 35.2376 266.282C35.4783 266.016 35.6641 265.705 35.7844 265.366C35.91 265.029 35.9666 264.671 35.9507 264.312C35.9347 263.953 35.8467 263.601 35.6918 263.277C35.4713 262.806 35.1223 262.408 34.6855 262.128C34.2487 261.849 33.742 261.701 33.2245 261.7C32.8265 261.699 32.4333 261.788 32.0736 261.959C31.5167 262.226 31.0662 262.675 30.7957 263.232C30.5252 263.789 30.4506 264.423 30.5843 265.028C30.7179 265.634 31.0518 266.176 31.5313 266.566C32.0109 266.956 32.6078 267.171 33.2245 267.175V267.175ZM32.7747 263.463C32.9158 263.398 33.0692 263.364 33.2245 263.363C33.4275 263.362 33.6265 263.42 33.7978 263.53C33.969 263.64 34.1052 263.796 34.1903 263.982C34.2521 264.108 34.2875 264.246 34.2944 264.387C34.3012 264.528 34.2793 264.668 34.23 264.8C34.1834 264.933 34.1108 265.055 34.0165 265.159C33.9222 265.263 33.8081 265.347 33.6809 265.406C33.4234 265.523 33.1307 265.534 32.8651 265.437C32.5995 265.34 32.382 265.142 32.2588 264.887C32.1997 264.759 32.1661 264.621 32.16 264.481C32.154 264.34 32.1755 264.2 32.2234 264.067C32.2713 263.935 32.3447 263.814 32.4393 263.71C32.5339 263.606 32.6479 263.522 32.7747 263.463V263.463Z" fill="#8F9A9D" fill-opacity="0.21"/>
<path d="M69.2545 267.641C66.8319 262.476 63.0017 258.108 58.2091 255.046C53.4165 251.984 47.8583 250.353 42.1806 250.342C35.6448 250.35 29.2923 252.515 24.0972 256.504C18.902 260.492 15.1512 266.085 13.4199 272.424H15.1397C16.7397 266.885 19.981 261.969 24.4311 258.331C28.8812 254.693 34.3284 252.507 40.046 252.063C45.7636 251.62 51.4795 252.941 56.4312 255.851C61.3829 258.76 65.3348 263.119 67.7595 268.346C68.3696 269.665 68.8803 271.028 69.2875 272.424H71.0074C70.5571 270.783 69.9708 269.183 69.2545 267.641V267.641Z" fill="#8F9A9D" fill-opacity="0.21"/>
<path d="M65.0439 261.694L65.3218 263.331C71.275 262.286 75.3165 262.666 76.1169 264.415C76.8445 265.985 75.0057 268.933 71.1758 272.399H73.5835C76.4675 269.518 78.7893 266.198 77.6118 263.683C76.1169 260.49 69.952 260.836 65.0439 261.694Z" fill="#8F9A9D" fill-opacity="0.21"/>
<path d="M177.671 223.923L177.156 222.346L168.259 225.287L164.184 212.812L163.397 213.071C160.586 214.002 158.144 215.812 156.427 218.237C154.71 220.661 153.808 223.574 153.852 226.551C152.572 224.737 150.878 223.258 148.912 222.238C146.946 221.218 144.766 220.687 142.554 220.689C141.082 220.682 139.618 220.906 138.215 221.354L111.882 230.097H111.842L111.69 230.143L111.148 230.33C107.9 231.667 105.276 234.19 103.803 237.393C102.329 240.596 102.115 244.241 103.204 247.596C104.293 250.951 106.604 253.768 109.673 255.479C112.742 257.191 116.341 257.671 119.747 256.823L146.516 247.974L146.635 247.941L146.887 247.874C149.698 246.943 152.14 245.134 153.857 242.709C155.574 240.284 156.476 237.371 156.432 234.395C158.151 236.817 160.595 238.623 163.407 239.55C166.218 240.478 169.251 240.478 172.062 239.551L172.849 239.292L168.775 226.817L177.671 223.923ZM153.462 240.203C152.743 241.648 151.745 242.935 150.526 243.988C149.308 245.041 147.893 245.84 146.364 246.337C146.321 246.355 146.277 246.368 146.232 246.377L146.02 246.437L120.772 254.78L119.985 255.04C118.462 255.547 116.854 255.748 115.254 255.631C113.653 255.514 112.091 255.081 110.658 254.356C109.224 253.632 107.946 252.63 106.896 251.409C105.847 250.188 105.047 248.771 104.543 247.239C104.038 245.707 103.838 244.09 103.955 242.48C104.072 240.87 104.502 239.3 105.223 237.857C105.943 236.415 106.938 235.13 108.152 234.074C109.366 233.019 110.775 232.215 112.299 231.707L112.576 231.62L138.737 222.971C141.035 222.212 143.505 222.154 145.834 222.807C148.164 223.46 150.249 224.793 151.825 226.637C153.402 228.482 154.398 230.756 154.69 233.171C154.981 235.585 154.554 238.033 153.462 240.203V240.203ZM170.753 238.247C169.765 238.504 168.749 238.634 167.73 238.633C164.894 238.63 162.148 237.636 159.96 235.821C157.773 234.006 156.28 231.483 155.738 228.684C155.196 225.884 155.637 222.982 156.987 220.474C158.337 217.966 160.512 216.008 163.139 214.934L170.753 238.247Z" fill="#8F9A9D" fill-opacity="0.21"/>
<path d="M103.592 248.474L103.076 246.897L100.278 247.809C100.032 247.473 99.7113 247.2 99.3413 247.011C98.9713 246.823 98.5625 246.725 98.1478 246.724C97.7289 246.723 97.3157 246.822 96.9422 247.013C96.5687 247.204 96.2457 247.482 95.9996 247.823C95.7535 248.164 95.5915 248.559 95.5268 248.975C95.4622 249.391 95.4967 249.817 95.6276 250.217C95.8006 250.751 96.1368 251.216 96.5883 251.546C97.0397 251.875 97.5833 252.053 98.1412 252.054C98.4242 252.053 98.7053 252.008 98.9747 251.921C99.5014 251.743 99.9593 251.404 100.283 250.95C100.608 250.496 100.781 249.951 100.78 249.392L103.592 248.474ZM98.4521 250.35C98.3159 250.394 98.1719 250.407 98.0301 250.389C97.8883 250.372 97.7519 250.323 97.6304 250.248C97.5089 250.172 97.4051 250.071 97.326 249.951C97.2469 249.831 97.1945 249.696 97.1724 249.554C97.1502 249.412 97.1588 249.267 97.1976 249.128C97.2363 248.99 97.3044 248.862 97.397 248.752C97.4896 248.643 97.6047 248.555 97.7342 248.494C97.8638 248.433 98.0049 248.402 98.1478 248.401C98.3851 248.4 98.615 248.484 98.7957 248.639C98.9764 248.794 99.096 249.008 99.1328 249.244C99.1696 249.48 99.1211 249.721 98.9963 249.924C98.8714 250.127 98.6783 250.278 98.4521 250.35V250.35Z" fill="#8F9A9D" fill-opacity="0.21"/>
<path d="M125.967 203.897L130.313 217.203L149.278 210.936L140.07 182.759L121.112 189.027L125.451 202.333L123.685 202.919L119.597 190.411L118.03 190.93L122.111 203.438L120.299 204.036L115.953 190.73L96.9951 196.997L106.203 225.187L125.167 218.92L120.821 205.613L122.634 205.014L129.248 225.327L130.816 224.808L124.201 204.496L125.967 203.897ZM127.542 203.378L131.769 201.981L135.592 213.697L131.365 215.094L127.542 203.378ZM137.563 200.051L141.393 211.768L137.166 213.165L133.336 201.448L137.563 200.051ZM132.82 199.872L128.997 188.155L133.224 186.758L137.047 198.474L132.82 199.872ZM142.961 211.249L139.137 199.532L143.357 198.135L147.194 209.885L142.961 211.249ZM142.848 196.578L138.628 197.975L134.798 186.259L139.025 184.862L142.848 196.578ZM123.202 190.091L127.429 188.694L131.259 200.43L127.032 201.828L123.202 190.091ZM118.731 204.562L114.511 205.959L110.681 194.243L114.908 192.846L118.731 204.562ZM108.71 207.889L104.886 196.172L109.107 194.775L112.937 206.492L108.71 207.889ZM113.452 208.068L117.282 219.785L113.056 221.182L109.226 209.465L113.452 208.068ZM103.312 196.691L107.142 208.408L102.915 209.805L99.0854 198.088L103.312 196.691ZM103.431 211.382L107.658 209.984L111.481 221.701L107.254 223.098L103.431 211.382ZM118.85 219.266L115.027 207.549L119.247 206.152L123.077 217.869L118.85 219.266Z" fill="#8F9A9D" fill-opacity="0.21"/>
<path d="M161.989 249.804L143.025 256.071L147.37 269.378L145.598 269.963L138.983 249.651L137.409 250.17L144.023 270.482L142.204 271.081L137.878 257.788L118.914 264.055L121.639 272.425H123.379L120.991 265.106L125.218 263.709L128.062 272.405H129.802L126.792 263.19L131.019 261.793L134.485 272.438H136.225L132.587 261.294L136.813 259.897L140.643 271.613L138.189 272.425H143.481L144.539 272.072L144.652 272.425H146.391L146.107 271.553L147.88 270.975L148.349 272.425H150.096L149.434 270.429L153.661 269.032L154.759 272.398H156.505L155.229 268.513L159.462 267.116L161.189 272.398H162.928L161.03 266.623L165.257 265.226L167.644 272.425H169.391L161.989 249.804ZM148.938 268.846L145.115 257.129L149.335 255.732L153.165 267.448L148.938 268.846ZM154.733 266.929L150.909 255.213L155.136 253.816L158.966 265.532L154.733 266.929ZM160.534 265.013L156.704 253.297L160.931 251.9L164.76 263.616L160.534 265.013Z" fill="#8F9A9D" fill-opacity="0.21"/>
<path d="M167.641 6.29498H169.387L171.206 11.8704L152.242 18.1378L148.352 6.29498H150.099L153.28 16.0353L157.507 14.6448L154.775 6.29498H156.522L159.075 14.1192L163.302 12.7287L161.205 6.29498H162.944L164.876 12.2031L169.096 10.8125L167.641 6.29498ZM148.643 18.4505L150.218 17.9315L146.395 6.29498H144.655L148.643 18.4505ZM128.138 26.1083L121.636 6.29498H123.375L124.817 10.7127L129.044 9.31556L128.059 6.29498H129.798L130.618 8.79661L134.839 7.39942L134.481 6.29498H136.221L136.413 6.88047L138.186 6.29498H143.477L142.717 6.54781L147.063 19.8543L128.138 26.1083ZM136.962 8.46395L140.792 20.1803L145.012 18.7831L141.182 7.06676L136.962 8.46395ZM131.168 10.3801L134.991 22.0964L139.218 20.6993L135.355 8.95628L131.168 10.3801ZM125.307 12.2829L129.137 23.9926L133.364 22.6021L129.534 10.8857L125.307 12.2829Z" fill="#8F9A9D" fill-opacity="0.21"/>
<path d="M66.2079 222.326C65.6318 220.063 64.2933 218.07 62.4206 216.688C60.5478 215.306 58.2566 214.62 55.9373 214.746C53.6179 214.873 51.4138 215.804 49.7005 217.382C47.9872 218.959 46.8707 221.085 46.5411 223.398C46.2115 225.711 46.6892 228.067 47.8929 230.065C49.0966 232.063 50.9517 233.58 53.1424 234.356C55.3331 235.133 57.7237 235.122 59.907 234.325C62.0904 233.527 63.9314 231.993 65.1165 229.984C65.7915 228.843 66.2354 227.579 66.4228 226.265C66.6101 224.95 66.537 223.612 66.2079 222.326V222.326ZM63.7009 229.132C62.857 230.569 61.6087 231.721 60.1137 232.444C58.6187 233.167 56.9442 233.428 55.302 233.193C53.6597 232.959 52.1233 232.24 50.8872 231.127C49.6511 230.015 48.7707 228.559 48.3573 226.943C47.9439 225.327 48.0161 223.624 48.5648 222.05C49.1134 220.476 50.1139 219.1 51.4397 218.097C52.7655 217.095 54.3571 216.51 56.0133 216.417C57.6694 216.324 59.3158 216.728 60.7442 217.576C62.6589 218.715 64.0458 220.572 64.6002 222.739C65.1546 224.906 64.8311 227.205 63.7009 229.132V229.132Z" fill="#8F9A9D" fill-opacity="0.21"/>
<path d="M3.12764 195.473L2.14307 196.809L25.6545 214.334L26.639 212.997L3.12764 195.473Z" fill="#8F9A9D" fill-opacity="0.21"/>
<path d="M12.5396 198.037L11.6978 199.468L40.7348 216.741L41.5766 215.309L12.5396 198.037Z" fill="#8F9A9D" fill-opacity="0.21"/>
<path d="M31.9612 217.07L30.9868 218.414L42.1356 226.591L43.11 225.247L31.9612 217.07Z" fill="#8F9A9D" fill-opacity="0.21"/>
<path d="M10.9394 192.859L10.2432 194.368L31.6745 204.374L32.3707 202.865L10.9394 192.859Z" fill="#8F9A9D" fill-opacity="0.21"/>
<path d="M36.1781 204.816L35.5107 206.337L48.069 211.909L48.7363 210.387L36.1781 204.816Z" fill="#8F9A9D" fill-opacity="0.21"/>
<path d="M57.9548 221.448C58.1756 221.067 58.2384 220.614 58.1294 220.187C58.0205 219.759 57.7486 219.393 57.3727 219.166C56.9916 218.954 56.5444 218.896 56.1226 219.005C55.7009 219.114 55.3364 219.381 55.1039 219.751C54.8802 220.132 54.8158 220.586 54.925 221.014C55.0342 221.441 55.3079 221.808 55.6859 222.033C56.064 222.258 56.5154 222.323 56.9409 222.213C57.3664 222.103 57.7311 221.828 57.9548 221.448V221.448Z" fill="#8F9A9D" fill-opacity="0.21"/>
<path d="M54.0718 224.782C53.6915 224.569 53.2449 224.511 52.8232 224.618C52.4015 224.726 52.0366 224.992 51.803 225.361C51.5807 225.742 51.5166 226.196 51.6244 226.625C51.6775 226.837 51.7721 227.036 51.9027 227.211C52.0333 227.386 52.1973 227.533 52.3851 227.643C52.6382 227.783 52.9232 227.854 53.2119 227.849C53.4993 227.849 53.7817 227.774 54.032 227.631C54.2822 227.489 54.4919 227.285 54.6407 227.037C54.7518 226.849 54.8249 226.641 54.8557 226.424C54.8866 226.207 54.8746 225.987 54.8206 225.775C54.7665 225.563 54.6713 225.364 54.5406 225.189C54.4098 225.014 54.246 224.866 54.0586 224.755L54.0718 224.782Z" fill="#8F9A9D" fill-opacity="0.21"/>
<path d="M60.3156 225.912C59.908 225.685 59.4296 225.623 58.9783 225.739C58.527 225.856 58.1369 226.141 57.888 226.537C57.6554 226.939 57.589 227.417 57.7028 227.868C57.7545 228.097 57.8514 228.313 57.9877 228.504C58.124 228.695 58.2971 228.857 58.4966 228.979C58.7721 229.139 59.0845 229.224 59.4028 229.225C59.7939 229.228 60.175 229.1 60.4866 228.862C60.7983 228.625 61.0229 228.29 61.1256 227.91C61.2282 227.53 61.2032 227.127 61.0543 226.763C60.9054 226.4 60.641 226.095 60.3024 225.899L60.3156 225.912ZM59.5152 227.502C59.5047 227.519 59.4901 227.534 59.4729 227.544C59.4556 227.554 59.4361 227.561 59.416 227.562H59.3499C59.3279 227.545 59.3117 227.522 59.3036 227.495C59.2975 227.482 59.2944 227.467 59.2944 227.452C59.2944 227.437 59.2975 227.422 59.3036 227.409C59.3116 227.391 59.3249 227.377 59.3415 227.367C59.358 227.358 59.3771 227.354 59.3962 227.356H59.4623C59.4853 227.371 59.5028 227.394 59.5123 227.42C59.5218 227.446 59.5228 227.475 59.5152 227.502Z" fill="#8F9A9D" fill-opacity="0.21"/>
<path d="M249.73 209.752C244.137 204.345 237.758 199.826 230.812 196.353L231.301 194.303C231.715 192.57 231.785 190.771 231.508 189.011C231.231 187.25 230.612 185.561 229.686 184.041C228.76 182.521 227.545 181.199 226.112 180.151C224.678 179.103 223.053 178.349 221.329 177.933C219.606 177.517 217.818 177.446 216.067 177.725C214.317 178.003 212.638 178.626 211.126 179.558C209.615 180.489 208.301 181.711 207.259 183.153C206.217 184.595 205.468 186.229 205.054 187.963L204.637 189.693C203.896 189.693 203.156 189.653 202.408 189.653C194.914 189.623 187.459 190.745 180.302 192.979L179.078 193.399L179.978 194.337C180.103 194.476 193.353 208.142 212.297 212.726C217.211 213.888 222.244 214.464 227.293 214.443C234.787 214.473 242.242 213.351 249.399 211.116L250.623 210.69L249.73 209.752ZM218.191 179.22C219.118 179.221 220.042 179.333 220.942 179.553C223.995 180.293 226.631 182.221 228.272 184.915C229.913 187.608 230.424 190.846 229.694 193.918L228.966 196.971C228.417 197.277 225.804 198.262 216.987 196.126C208.17 193.991 206.278 191.922 205.927 191.403C206.126 190.591 206.364 189.593 206.661 188.349C207.303 185.756 208.784 183.451 210.872 181.799C212.959 180.146 215.534 179.239 218.191 179.22V179.22ZM205.471 193.332C206.906 194.53 209.989 196.146 216.597 197.743C219.66 198.569 222.807 199.038 225.976 199.14C226.825 199.153 227.672 199.072 228.503 198.901L228.192 200.231C227.908 200.384 227.087 200.724 225.163 200.724C222.139 200.619 219.137 200.173 216.213 199.393C207.263 197.231 205.451 195.135 205.153 194.696L205.471 193.332ZM204.247 191.336L203.698 193.618C203.582 194.017 203.511 194.428 203.486 194.842C203.486 194.876 203.486 194.916 203.486 194.962C203.497 195.046 203.524 195.128 203.566 195.202C204.022 196.266 206.159 198.628 215.809 200.963C218.873 201.787 222.02 202.258 225.189 202.367C228.496 202.367 229.422 201.449 229.621 201.17L229.72 201.037L230.441 198.009C236.424 201.053 241.984 204.874 246.978 209.373C246.753 209.431 246.442 209.497 246.045 209.573C242.811 210.165 233.689 210.903 214.612 206.246C195.813 201.702 186.341 196.539 182.822 194.27L182.471 194.037C188.985 192.238 195.707 191.316 202.461 191.296C203.023 191.316 203.632 191.329 204.247 191.343V191.336ZM212.687 211.096C202.349 208.595 193.743 203.319 188.153 199.12C193.505 201.662 201.846 204.875 214.176 207.856C226.505 210.837 234.681 211.622 239.973 211.648C235.784 212.373 231.543 212.743 227.293 212.753C222.377 212.779 217.475 212.226 212.687 211.103V211.096Z" fill="#8F9A9D" fill-opacity="0.21"/>
<path d="M225.325 192.208L226.932 192.601C227.478 190.305 227.097 187.886 225.871 185.873C224.646 183.86 222.678 182.418 220.397 181.862L220.007 183.479C221.862 183.929 223.464 185.101 224.461 186.737C225.458 188.374 225.769 190.341 225.325 192.208V192.208Z" fill="#8F9A9D" fill-opacity="0.21"/>
<path d="M225.225 34.8051C223.026 34.7955 220.852 35.2818 218.864 36.2282C216.875 37.1746 215.123 38.5571 213.736 40.274L208.98 36.6946C209.115 36.311 209.156 35.9 209.099 35.497C209.011 34.8686 208.7 34.2934 208.223 33.8776C207.747 33.4618 207.137 33.2335 206.506 33.2349C206.083 33.2183 205.662 33.3041 205.278 33.4851C204.895 33.666 204.561 33.9369 204.303 34.275C204.045 34.613 203.872 35.0083 203.798 35.4276C203.724 35.8469 203.75 36.2781 203.876 36.6848C204.002 37.0915 204.223 37.4619 204.521 37.7648C204.818 38.0678 205.184 38.2944 205.587 38.4258C205.99 38.5571 206.418 38.5893 206.836 38.5196C207.253 38.4499 207.648 38.2804 207.988 38.0252L212.77 41.6246C210.814 44.645 210.015 48.2768 210.521 51.8452C211.027 55.4136 212.804 58.6758 215.522 61.0255V61.0255L254.383 97.1327L255.554 95.955L226.681 64.5916C230.019 64.2711 233.149 62.8135 235.551 60.46L259.582 77.2661V73.9395L238.336 56.7075C239.804 53.9296 240.356 50.7534 239.91 47.6392C239.91 47.4396 239.831 47.24 239.798 47.0404L259.582 56.9471V55.0842L239.255 44.8847C238.916 43.8784 238.472 42.9106 237.932 41.9972L259.582 55.0842V53.1414L233.937 37.666C231.411 35.8025 228.358 34.8 225.225 34.8051V34.8051ZM207.28 36.4484C207.126 36.6549 206.898 36.7915 206.644 36.8283C206.39 36.8651 206.132 36.7991 205.927 36.6447C205.722 36.4903 205.586 36.2602 205.549 36.005C205.513 35.7499 205.578 35.4906 205.732 35.2841C205.822 35.1638 205.939 35.0663 206.074 34.9993C206.208 34.9323 206.356 34.8977 206.506 34.8982C206.716 34.8977 206.92 34.9654 207.088 35.0912C207.192 35.1706 207.28 35.2705 207.344 35.3849C207.409 35.4992 207.45 35.6257 207.465 35.7565C207.492 36.0023 207.426 36.2494 207.28 36.4484V36.4484ZM239.963 81.4776L221.296 64.1392C222.331 64.4244 223.393 64.594 224.465 64.6449L239.963 81.4776ZM252.306 70.1671L225.252 51.2519L226.661 49.3557L252.306 70.1671ZM238.303 47.8854C238.685 50.5419 238.254 53.2526 237.066 55.6563L226.363 47.0071L222.897 51.6644L234.155 59.5219C231.983 61.5424 229.201 62.7724 226.252 63.0154C223.304 63.2584 220.36 62.5004 217.89 60.8624C215.42 59.2243 213.567 56.8009 212.628 53.9793C211.688 51.1577 211.716 48.1008 212.707 45.297C213.698 42.4932 215.594 40.1043 218.093 38.5121C220.593 36.9199 223.55 36.2162 226.494 36.5135C229.437 36.8108 232.197 38.0919 234.332 40.1521C236.466 42.2123 237.853 44.9327 238.27 47.8787L238.303 47.8854Z" fill="#8F9A9D" fill-opacity="0.21"/>
<path d="M219.413 57.5255C217.357 55.9731 215.997 53.6636 215.632 51.1039C215.268 48.5442 215.928 45.9436 217.468 43.873L216.145 42.875C214.348 45.2982 213.578 48.3389 214.005 51.3315C214.431 54.3242 216.019 57.025 218.421 58.8428L219.413 57.5255Z" fill="#8F9A9D" fill-opacity="0.21"/>
<path d="M6.73445 83.441L-5 73.9202V77.2668L5.74225 84.7716L6.73445 83.441Z" fill="#8F9A9D" fill-opacity="0.21"/>
<path d="M-5 55.0839L-4.97354 55.1038L-5 55.0839V56.9468L13.2235 66.0817L14.0238 64.6247L-5 53.1411V55.0839Z" fill="#8F9A9D" fill-opacity="0.21"/>
<path d="M134.57 45.4907L153.753 50.2078L154.143 48.5911L136.085 44.16C135.563 44.5659 135.06 45.0183 134.57 45.4907Z" fill="#8F9A9D" fill-opacity="0.21"/>
<path d="M135.177 49.5903L134.785 51.2061L164.987 58.6227L165.379 57.0069L135.177 49.5903Z" fill="#8F9A9D" fill-opacity="0.21"/>
<path d="M146.947 58.8162L147.338 57.1995L129.723 52.8682C129.518 53.3805 129.333 53.9061 129.174 54.445L146.947 58.8162Z" fill="#8F9A9D" fill-opacity="0.21"/>
<path d="M139.661 59.134L139.264 60.7508L169.255 68.1159C169.446 67.597 169.618 67.0714 169.771 66.5324L139.661 59.134Z" fill="#8F9A9D" fill-opacity="0.21"/>
<path d="M155.881 58.6431L155.49 60.2598L170.34 63.9058C170.426 63.3536 170.486 62.7947 170.532 62.2425L155.881 58.6431Z" fill="#8F9A9D" fill-opacity="0.21"/>
<path d="M165.206 46.4996L150.786 42.96L150.396 44.5768L166.859 48.622C166.353 47.8803 165.801 47.1714 165.206 46.4996V46.4996Z" fill="#8F9A9D" fill-opacity="0.21"/>
<path d="M156.535 73.7532L156.932 72.1364L128.714 65.2038C128.853 65.8225 129.012 66.4346 129.197 67.0334L156.535 73.7532Z" fill="#8F9A9D" fill-opacity="0.21"/>
<path d="M162.25 77.6252L141.189 72.4556L140.799 74.0657L160.411 78.8826C161.045 78.4952 161.659 78.0755 162.25 77.6252V77.6252Z" fill="#8F9A9D" fill-opacity="0.21"/>
<path d="M154.632 39.1901C150.403 38.1501 145.963 38.3948 141.873 39.8933C137.783 41.3918 134.226 44.0768 131.653 47.6087C129.08 51.1406 127.606 55.3606 127.418 59.7351C127.23 64.1096 128.336 68.4419 130.596 72.1841C132.856 75.9263 136.169 78.9103 140.115 80.7585C144.061 82.6068 148.464 83.2363 152.766 82.5675C157.068 81.8987 161.076 79.9616 164.284 77.0012C167.491 74.0408 169.754 70.1901 170.785 65.9362C171.483 63.1128 171.618 60.1783 171.183 57.302C170.748 54.4258 169.75 51.6647 168.249 49.1782C166.747 46.6916 164.77 44.5288 162.433 42.8145C160.096 41.1002 157.445 39.8684 154.632 39.1901V39.1901ZM169.184 65.5436C168.234 69.4863 166.142 73.0567 163.173 75.8026C160.203 78.5486 156.491 80.3467 152.505 80.9692C148.52 81.5917 144.44 81.0106 140.783 79.2996C137.126 77.5885 134.056 74.8244 131.961 71.3573C129.867 67.8901 128.843 63.8759 129.018 59.8228C129.193 55.7697 130.56 51.86 132.946 48.5888C135.331 45.3176 138.628 42.832 142.419 41.4467C146.21 40.0614 150.325 39.8387 154.242 40.8069C156.841 41.4385 159.29 42.5804 161.45 44.1669C163.609 45.7535 165.435 47.7535 166.823 50.0521C168.212 52.3506 169.135 54.9024 169.54 57.561C169.946 60.2195 169.825 62.9323 169.184 65.5436V65.5436Z" fill="#8F9A9D" fill-opacity="0.21"/>
<path d="M215.968 115.242C213.281 109.459 209.012 104.566 203.661 101.134C198.31 97.7018 192.099 95.8728 185.752 95.8608C179.633 95.862 173.633 97.5593 168.411 100.766C163.188 103.973 158.945 108.566 156.148 114.04C153.351 119.514 152.108 125.657 152.556 131.796C153.003 137.934 155.124 143.829 158.685 148.834C157.411 150.342 156.592 152.186 156.326 154.147C156.061 156.108 156.358 158.105 157.185 159.901C158.011 161.697 159.332 163.218 160.99 164.283C162.649 165.348 164.576 165.914 166.543 165.913C168.273 165.912 169.974 165.473 171.489 164.635C173.005 163.798 174.287 162.59 175.215 161.123C181.39 163.205 188.037 163.42 194.332 161.741C200.627 160.062 206.294 156.563 210.632 151.677C214.97 146.79 217.787 140.732 218.736 134.251C219.684 127.77 218.722 121.151 215.968 115.215V115.242ZM213.845 114.663L204.247 119.154C203.808 119.347 203.312 119.362 202.862 119.196C202.412 119.03 202.043 118.695 201.833 118.262L201.74 118.063C201.639 117.845 201.581 117.61 201.571 117.37C201.561 117.13 201.598 116.891 201.681 116.666C201.847 116.211 202.184 115.841 202.62 115.634L202.845 115.528C203.261 115.335 203.634 115.061 203.944 114.722C204.255 114.383 204.495 113.985 204.652 113.552C204.808 113.119 204.879 112.66 204.858 112.199C204.837 111.739 204.726 111.287 204.531 110.871L204.439 110.664C204.246 110.247 203.972 109.873 203.635 109.562C203.297 109.251 202.902 109.01 202.472 108.853C202.042 108.696 201.585 108.626 201.128 108.647C200.671 108.668 200.223 108.779 199.809 108.974L192.87 112.221C192.431 112.415 191.934 112.431 191.483 112.267C191.032 112.102 190.662 111.769 190.449 111.336L190.356 111.137C190.174 110.699 190.166 110.208 190.333 109.765C190.501 109.322 190.831 108.96 191.256 108.755L192.579 108.129C192.995 107.936 193.368 107.662 193.678 107.323C193.989 106.984 194.229 106.587 194.386 106.154C194.542 105.721 194.613 105.261 194.592 104.801C194.571 104.341 194.46 103.889 194.265 103.472L194.173 103.266C193.98 102.849 193.706 102.474 193.369 102.163C193.031 101.853 192.636 101.612 192.206 101.455C191.776 101.298 191.319 101.228 190.862 101.249C190.405 101.269 189.957 101.381 189.543 101.576L178.8 106.599C178.362 106.793 177.866 106.809 177.417 106.644C176.967 106.479 176.598 106.146 176.386 105.714L176.293 105.515C176.09 105.075 176.069 104.573 176.234 104.117C176.399 103.662 176.737 103.291 177.173 103.086L188.709 97.6838C193.972 98.1902 199.026 100.008 203.414 102.972C207.803 105.937 211.388 109.955 213.845 114.663V114.663ZM156.152 140.537C155.706 139.357 155.331 138.15 155.027 136.925C155.4 136.894 155.773 136.975 156.1 137.159C156.426 137.343 156.691 137.62 156.859 137.956L156.952 138.162C157.148 138.586 157.174 139.069 157.025 139.511C156.876 139.953 156.563 140.321 156.152 140.537V140.537ZM156.813 142.094C157.648 141.699 158.293 140.987 158.607 140.114C158.921 139.241 158.878 138.278 158.487 137.437L158.394 137.237C158.109 136.638 157.66 136.132 157.101 135.779C156.541 135.426 155.893 135.239 155.232 135.241C155.055 135.246 154.878 135.264 154.703 135.295C154.441 133.906 154.271 132.501 154.194 131.09L156.132 130.178C156.548 129.985 156.921 129.711 157.232 129.372C157.542 129.033 157.782 128.636 157.939 128.203C158.096 127.77 158.166 127.31 158.145 126.85C158.124 126.39 158.013 125.938 157.819 125.521L157.726 125.321C157.625 125.104 157.567 124.869 157.557 124.629C157.547 124.389 157.584 124.15 157.666 123.924C157.831 123.467 158.168 123.094 158.606 122.886L171.756 116.739C172.194 116.545 172.69 116.529 173.139 116.694C173.589 116.859 173.958 117.192 174.17 117.624L174.263 117.823C174.466 118.263 174.487 118.765 174.322 119.22C174.157 119.676 173.819 120.047 173.383 120.252L172.351 120.737C171.514 121.13 170.866 121.841 170.549 122.715C170.233 123.588 170.274 124.552 170.664 125.395L170.764 125.601C171.048 126.2 171.495 126.705 172.054 127.059C172.612 127.412 173.259 127.599 173.919 127.597C174.422 127.598 174.919 127.487 175.374 127.271L182.849 123.778C183.287 123.584 183.782 123.568 184.232 123.733C184.682 123.898 185.051 124.231 185.263 124.663L185.355 124.862C185.558 125.302 185.58 125.804 185.415 126.26C185.25 126.715 184.912 127.086 184.476 127.291L170.532 133.818C170.117 134.011 169.744 134.286 169.434 134.625C169.125 134.964 168.885 135.362 168.729 135.795C168.573 136.228 168.503 136.687 168.524 137.147C168.545 137.607 168.657 138.058 168.852 138.475L168.944 138.681C169.229 139.28 169.677 139.785 170.235 140.138C170.794 140.491 171.44 140.678 172.1 140.677C172.603 140.68 173.1 140.569 173.555 140.351L175.771 139.313C176.211 139.121 176.708 139.107 177.158 139.273C177.609 139.439 177.979 139.772 178.192 140.205L178.284 140.404C178.487 140.845 178.507 141.348 178.341 141.803C178.175 142.259 177.836 142.629 177.398 142.833L170.605 146.013C168.601 145.138 166.371 144.931 164.241 145.421C163.59 144.761 162.705 144.388 161.781 144.383C161.278 144.383 160.781 144.495 160.326 144.709L158.533 145.547C158.01 144.656 157.521 143.731 157.084 142.786C156.972 142.56 156.879 142.327 156.78 142.094H156.813ZM162.244 146.126C161.406 146.522 160.625 147.03 159.922 147.636C159.77 147.417 159.618 147.191 159.472 146.971L161.073 146.226C161.432 146.07 161.831 146.035 162.211 146.126H162.244ZM170.221 163.425C169.082 163.966 167.837 164.245 166.576 164.243C164.594 164.258 162.666 163.588 161.115 162.346C159.564 161.103 158.485 159.362 158.056 157.415C157.628 155.468 157.877 153.432 158.762 151.647C159.647 149.862 161.114 148.437 162.918 147.61C163.956 147.07 165.092 146.747 166.258 146.66C167.423 146.574 168.594 146.725 169.7 147.106C170.805 147.486 171.823 148.088 172.691 148.875C173.559 149.661 174.26 150.617 174.752 151.683C175.243 152.749 175.515 153.905 175.551 155.08C175.586 156.254 175.385 157.424 174.959 158.519C174.534 159.613 173.892 160.61 173.073 161.449C172.254 162.287 171.275 162.95 170.195 163.398L170.221 163.425ZM201.972 145.201L201.879 145.002C201.688 144.583 201.416 144.206 201.079 143.894C200.742 143.581 200.346 143.339 199.916 143.182C199.485 143.024 199.028 142.953 198.57 142.975C198.112 142.996 197.663 143.108 197.249 143.305L195.707 144.017C195.269 144.211 194.774 144.227 194.324 144.062C193.874 143.897 193.505 143.564 193.293 143.132L193.201 142.933C192.998 142.493 192.976 141.991 193.141 141.535C193.306 141.08 193.644 140.709 194.08 140.504L210.617 132.753C211.055 132.56 211.551 132.543 212.001 132.708C212.45 132.873 212.82 133.206 213.031 133.638L213.124 133.838C213.225 134.055 213.283 134.29 213.293 134.53C213.303 134.77 213.266 135.009 213.183 135.235C213.017 135.689 212.68 136.06 212.244 136.266L211.907 136.426C211.492 136.619 211.118 136.894 210.809 137.233C210.5 137.573 210.26 137.97 210.104 138.403C209.948 138.836 209.878 139.295 209.899 139.755C209.92 140.215 210.032 140.666 210.227 141.083L210.319 141.289C210.604 141.888 211.052 142.393 211.61 142.746C212.168 143.099 212.815 143.286 213.475 143.285C213.733 143.287 213.99 143.258 214.242 143.199C213.184 145.407 211.875 147.483 210.339 149.386L195.615 156.279C195.176 156.471 194.681 156.486 194.232 156.321C193.783 156.157 193.413 155.825 193.201 155.394L193.101 155.188C192.903 154.747 192.884 154.245 193.048 153.791C193.13 153.565 193.255 153.358 193.416 153.181C193.577 153.004 193.771 152.861 193.988 152.759L200.252 149.832C201.088 149.438 201.735 148.726 202.05 147.853C202.365 146.98 202.322 146.016 201.932 145.175L201.972 145.201ZM215.512 140.271C215.399 140.584 215.274 140.89 215.155 141.196C214.849 141.247 214.55 141.339 214.268 141.469C213.83 141.662 213.335 141.677 212.886 141.51C212.437 141.344 212.07 141.01 211.861 140.577L211.761 140.378C211.563 139.937 211.544 139.435 211.708 138.981C211.789 138.753 211.913 138.545 212.074 138.367C212.236 138.188 212.431 138.044 212.648 137.943L212.978 137.79C213.394 137.596 213.768 137.322 214.078 136.983C214.388 136.644 214.629 136.247 214.785 135.814C214.942 135.381 215.012 134.921 214.992 134.461C214.971 134.001 214.86 133.549 214.665 133.132L214.573 132.926C214.288 132.328 213.84 131.823 213.282 131.469C212.723 131.116 212.077 130.929 211.417 130.93C210.912 130.928 210.413 131.039 209.956 131.256L193.419 139.007C193.004 139.201 192.63 139.475 192.321 139.815C192.011 140.154 191.771 140.551 191.614 140.984C191.458 141.416 191.387 141.876 191.408 142.336C191.428 142.796 191.538 143.247 191.732 143.664L191.825 143.857C192.109 144.456 192.556 144.962 193.115 145.315C193.673 145.668 194.32 145.855 194.98 145.853C195.483 145.853 195.98 145.742 196.435 145.527L197.99 144.802C198.429 144.608 198.925 144.592 199.376 144.757C199.827 144.922 200.198 145.255 200.411 145.687L200.503 145.893C200.702 146.334 200.721 146.836 200.555 147.29C200.389 147.745 200.052 148.115 199.617 148.322L193.353 151.249C192.938 151.444 192.566 151.718 192.257 152.058C191.948 152.397 191.708 152.795 191.552 153.227C191.396 153.66 191.326 154.119 191.347 154.579C191.368 155.039 191.478 155.49 191.673 155.906L191.765 156.106C192.05 156.704 192.497 157.209 193.056 157.563C193.614 157.916 194.261 158.103 194.92 158.102C195.423 158.104 195.92 157.995 196.376 157.783L207.363 152.666C204.922 154.947 202.141 156.828 199.121 158.242C191.862 161.655 183.582 162.155 175.969 159.639C176.93 157.44 177.096 154.972 176.438 152.663C175.779 150.354 174.338 148.35 172.364 146.998L178.073 144.336C178.487 144.142 178.86 143.867 179.169 143.528C179.478 143.188 179.717 142.791 179.873 142.358C180.029 141.926 180.099 141.466 180.078 141.007C180.058 140.547 179.947 140.096 179.753 139.679L179.66 139.48C179.376 138.881 178.929 138.375 178.37 138.022C177.812 137.668 177.165 137.482 176.505 137.484C176.002 137.481 175.504 137.592 175.05 137.81L172.834 138.841C172.396 139.034 171.9 139.05 171.45 138.886C171 138.721 170.631 138.388 170.42 137.956L170.32 137.756C170.122 137.316 170.103 136.814 170.267 136.359C170.348 136.132 170.472 135.923 170.633 135.745C170.795 135.567 170.99 135.423 171.207 135.321L185.144 128.801C185.56 128.608 185.933 128.334 186.244 127.995C186.554 127.656 186.794 127.258 186.951 126.826C187.108 126.393 187.178 125.933 187.157 125.473C187.136 125.012 187.025 124.561 186.831 124.144L186.738 123.951C186.454 123.352 186.006 122.846 185.448 122.493C184.889 122.14 184.243 121.953 183.583 121.955C183.08 121.955 182.583 122.067 182.128 122.281L174.653 125.781C174.212 125.971 173.716 125.984 173.266 125.818C172.816 125.653 172.446 125.32 172.232 124.889L172.139 124.689C171.94 124.249 171.92 123.748 172.085 123.294C172.25 122.84 172.585 122.469 173.019 122.261L174.051 121.775C174.887 121.381 175.534 120.67 175.85 119.797C176.166 118.924 176.126 117.961 175.738 117.118L175.645 116.925C175.453 116.507 175.181 116.131 174.844 115.819C174.507 115.507 174.111 115.265 173.681 115.107C173.251 114.95 172.794 114.879 172.336 114.9C171.878 114.921 171.429 115.032 171.015 115.228L157.878 121.396C157.041 121.789 156.393 122.5 156.076 123.373C155.76 124.247 155.801 125.211 156.191 126.053L156.284 126.253C156.385 126.47 156.443 126.706 156.453 126.945C156.463 127.185 156.426 127.425 156.343 127.65C156.179 128.107 155.842 128.481 155.404 128.688L154.114 129.287C154.14 123.238 155.876 117.321 159.119 112.227C162.362 107.133 166.979 103.072 172.43 100.518C176.398 98.652 180.711 97.6433 185.091 97.5574L176.492 101.549C176.076 101.743 175.702 102.017 175.392 102.356C175.082 102.695 174.842 103.092 174.685 103.525C174.528 103.958 174.458 104.418 174.479 104.878C174.499 105.338 174.61 105.79 174.805 106.207L174.898 106.406C175.09 106.824 175.362 107.2 175.699 107.512C176.036 107.824 176.431 108.066 176.862 108.224C177.292 108.381 177.749 108.452 178.207 108.431C178.664 108.41 179.113 108.299 179.528 108.103L190.27 103.08C190.708 102.884 191.205 102.867 191.655 103.032C192.105 103.197 192.474 103.531 192.685 103.964L192.777 104.164C192.98 104.604 193.001 105.106 192.837 105.561C192.672 106.017 192.334 106.387 191.897 106.593L190.574 107.258C190.159 107.452 189.786 107.726 189.477 108.065C189.167 108.405 188.928 108.802 188.771 109.235C188.615 109.668 188.546 110.127 188.567 110.587C188.588 111.047 188.699 111.499 188.894 111.915L188.987 112.115C189.178 112.534 189.45 112.91 189.787 113.223C190.124 113.535 190.52 113.777 190.95 113.935C191.381 114.093 191.838 114.163 192.296 114.142C192.754 114.121 193.203 114.008 193.617 113.811L200.563 110.558C201.002 110.365 201.498 110.35 201.948 110.516C202.398 110.682 202.766 111.016 202.977 111.449L203.07 111.649C203.273 112.089 203.294 112.593 203.129 113.049C202.965 113.506 202.627 113.878 202.19 114.084L201.965 114.184C201.13 114.579 200.484 115.291 200.168 116.163C199.852 117.036 199.892 117.998 200.278 118.841L200.371 119.041C200.763 119.882 201.47 120.533 202.338 120.85C203.205 121.168 204.163 121.128 205.001 120.737L214.619 116.233C218.054 123.817 218.373 132.459 215.505 140.278L215.512 140.271Z" fill="#8F9A9D" fill-opacity="0.21"/>
<path d="M190.576 221.64C191.307 221.64 191.899 221.044 191.899 220.309C191.899 219.574 191.307 218.979 190.576 218.979C189.845 218.979 189.253 219.574 189.253 220.309C189.253 221.044 189.845 221.64 190.576 221.64Z" fill="#8F9A9D" fill-opacity="0.21"/>
<path d="M108.558 88.5769C109.289 88.5769 109.881 87.9812 109.881 87.2463C109.881 86.5114 109.289 85.9156 108.558 85.9156C107.828 85.9156 107.235 86.5114 107.235 87.2463C107.235 87.9812 107.828 88.5769 108.558 88.5769Z" fill="#8F9A9D" fill-opacity="0.21"/>
<path d="M135.45 131.597C136.181 131.597 136.773 131.001 136.773 130.266C136.773 129.531 136.181 128.936 135.45 128.936C134.719 128.936 134.127 129.531 134.127 130.266C134.127 131.001 134.719 131.597 135.45 131.597Z" fill="#8F9A9D" fill-opacity="0.21"/>
<path d="M109.879 127.605C110.609 127.605 111.202 127.009 111.202 126.274C111.202 125.539 110.609 124.944 109.879 124.944C109.148 124.944 108.556 125.539 108.556 126.274C108.556 127.009 109.148 127.605 109.879 127.605Z" fill="#8F9A9D" fill-opacity="0.21"/>
<path d="M194.982 57.9706C195.713 57.9706 196.305 57.3749 196.305 56.64C196.305 55.9051 195.713 55.3093 194.982 55.3093C194.251 55.3093 193.659 55.9051 193.659 56.64C193.659 57.3749 194.251 57.9706 194.982 57.9706Z" fill="#8F9A9D" fill-opacity="0.21"/>
<path d="M217.915 85.9151C218.645 85.9151 219.238 85.3193 219.238 84.5844C219.238 83.8495 218.645 83.2538 217.915 83.2538C217.184 83.2538 216.592 83.8495 216.592 84.5844C216.592 85.3193 217.184 85.9151 217.915 85.9151Z" fill="#8F9A9D" fill-opacity="0.21"/>
<path d="M197.627 177.284C198.357 177.284 198.95 176.689 198.95 175.954C198.95 175.219 198.357 174.623 197.627 174.623C196.896 174.623 196.304 175.219 196.304 175.954C196.304 176.689 196.896 177.284 197.627 177.284Z" fill="#8F9A9D" fill-opacity="0.21"/>
<path d="M144.269 171.076C145 171.076 145.592 170.48 145.592 169.745C145.592 169.011 145 168.415 144.269 168.415C143.539 168.415 142.946 169.011 142.946 169.745C142.946 170.48 143.539 171.076 144.269 171.076Z" fill="#8F9A9D" fill-opacity="0.21"/>
<path d="M183.517 258.008C184.248 258.008 184.84 257.412 184.84 256.677C184.84 255.942 184.248 255.346 183.517 255.346C182.787 255.346 182.194 255.942 182.194 256.677C182.194 257.412 182.787 258.008 183.517 258.008Z" fill="#8F9A9D" fill-opacity="0.21"/>
<path d="M248.784 265.107C249.515 265.107 250.107 264.511 250.107 263.777C250.107 263.042 249.515 262.446 248.784 262.446C248.053 262.446 247.461 263.042 247.461 263.777C247.461 264.511 248.053 265.107 248.784 265.107Z" fill="#8F9A9D" fill-opacity="0.21"/>
<path d="M72.3923 248.253C73.1229 248.253 73.7152 247.657 73.7152 246.922C73.7152 246.187 73.1229 245.592 72.3923 245.592C71.6616 245.592 71.0693 246.187 71.0693 246.922C71.0693 247.657 71.6616 248.253 72.3923 248.253Z" fill="#8F9A9D" fill-opacity="0.21"/>
<path d="M17.8244 248.919C18.555 248.919 19.1473 248.324 19.1473 247.589C19.1473 246.854 18.555 246.258 17.8244 246.258C17.0938 246.258 16.5015 246.854 16.5015 247.589C16.5015 248.324 17.0938 248.919 17.8244 248.919Z" fill="#8F9A9D" fill-opacity="0.21"/>
<path d="M55.197 59.3022C55.9276 59.3022 56.5199 58.7065 56.5199 57.9716C56.5199 57.2367 55.9276 56.6409 55.197 56.6409C54.4663 56.6409 53.874 57.2367 53.874 57.9716C53.874 58.7065 54.4663 59.3022 55.197 59.3022Z" fill="#8F9A9D" fill-opacity="0.21"/>
<path d="M4.9245 44.2184C5.65514 44.2184 6.24744 43.6227 6.24744 42.8878C6.24744 42.1529 5.65514 41.5571 4.9245 41.5571C4.19386 41.5571 3.60156 42.1529 3.60156 42.8878C3.60156 43.6227 4.19386 44.2184 4.9245 44.2184Z" fill="#8F9A9D" fill-opacity="0.21"/>
<path d="M81.2116 39.782C81.9422 39.782 82.5345 39.1863 82.5345 38.4514C82.5345 37.7165 81.9422 37.1207 81.2116 37.1207C80.481 37.1207 79.8887 37.7165 79.8887 38.4514C79.8887 39.1863 80.481 39.782 81.2116 39.782Z" fill="#8F9A9D" fill-opacity="0.21"/>
<path d="M153.089 28.2501C153.819 28.2501 154.411 27.6544 154.411 26.9195C154.411 26.1846 153.819 25.5888 153.089 25.5888C152.358 25.5888 151.766 26.1846 151.766 26.9195C151.766 27.6544 152.358 28.2501 153.089 28.2501Z" fill="#8F9A9D" fill-opacity="0.21"/>
<path d="M34.4684 187.046C35.1991 187.046 35.7914 186.45 35.7914 185.715C35.7914 184.98 35.1991 184.384 34.4684 184.384C33.7378 184.384 33.1455 184.98 33.1455 185.715C33.1455 186.45 33.7378 187.046 34.4684 187.046Z" fill="#8F9A9D" fill-opacity="0.21"/>
<path d="M9.7746 102.768C10.5052 102.768 11.0975 102.172 11.0975 101.437C11.0975 100.702 10.5052 100.107 9.7746 100.107C9.04396 100.107 8.45166 100.702 8.45166 101.437C8.45166 102.172 9.04396 102.768 9.7746 102.768Z" fill="#8F9A9D" fill-opacity="0.21"/>
<path d="M256.278 221.64C257.009 221.64 257.601 221.044 257.601 220.309C257.601 219.574 257.009 218.979 256.278 218.979C255.547 218.979 254.955 219.574 254.955 220.309C254.955 221.044 255.547 221.64 256.278 221.64Z" fill="#8F9A9D" fill-opacity="0.21"/>
<path d="M278.878 233.297C274.248 232.325 273.672 231.746 272.713 227.096L271.899 223.19L271.092 227.102C270.127 231.76 269.551 232.332 264.928 233.303L261.038 234.115L264.928 234.933C269.558 235.898 270.127 236.483 271.092 241.134L271.899 245.046L272.713 241.134C273.672 236.477 274.254 235.898 278.878 234.933L282.767 234.115L278.878 233.297ZM271.899 237.754C271.64 236.895 271.174 236.112 270.543 235.476C269.912 234.841 269.135 234.371 268.281 234.108C269.136 233.848 269.913 233.38 270.544 232.745C271.176 232.11 271.641 231.328 271.899 230.469C272.16 231.328 272.628 232.109 273.26 232.744C273.892 233.379 274.67 233.847 275.524 234.108C274.67 234.371 273.892 234.841 273.26 235.477C272.628 236.113 272.161 236.895 271.899 237.754V237.754Z" fill="#8F9A9D" fill-opacity="0.21"/>
<path d="M260.03 123.946L259.587 122.389V127.818C260.976 131.224 262.735 132.808 266.44 134.158C262.735 135.489 260.976 137.092 259.587 140.492V145.921L260.03 144.371C261.829 138.084 263.139 136.766 269.39 134.957L272.155 134.158L269.39 133.36C263.139 131.55 261.829 130.233 260.03 123.946Z" fill="#8F9A9D" fill-opacity="0.21"/>
<path d="M259.587 130.045V131.728C260.174 131.804 260.713 132.093 261.104 132.54C261.495 132.987 261.711 133.561 261.711 134.157C261.711 134.752 261.495 135.327 261.104 135.774C260.713 136.221 260.174 136.509 259.587 136.585V138.269C260.614 138.185 261.573 137.716 262.272 136.954C262.971 136.192 263.359 135.194 263.359 134.157C263.359 133.12 262.971 132.121 262.272 131.359C261.573 130.598 260.614 130.128 259.587 130.045V130.045Z" fill="#8F9A9D" fill-opacity="0.21"/>
<path d="M260.063 113.812H259.587V119.328H260.063V113.812Z" fill="#8F9A9D" fill-opacity="0.21"/>
<path d="M260.063 148.981H259.587V154.497H260.063V148.981Z" fill="#8F9A9D" fill-opacity="0.21"/>
<path d="M271.321 83.441L259.587 73.9202V77.2668L270.329 84.7716L271.321 83.441Z" fill="#8F9A9D" fill-opacity="0.21"/>
<path d="M259.587 55.0839L259.613 55.1038L259.587 55.0839V56.9468L277.817 66.0817L278.611 64.6247L259.587 53.1411V55.0839Z" fill="#8F9A9D" fill-opacity="0.21"/>
</g>
</g>
</svg>
